<svg width="352" height="107" viewBox="0 0 352 107" fill="none" xmlns="http://www.w3.org/2000/svg">
<path d="M-1.52588e-05 0H52.6103C62.4002 0 71.4945 7.45029 71.4945 17.1848C71.4945 26.9193 62.4002 34.3829 52.6103 34.3829H14.7634V47.982H-1.52588e-05V0ZM14.7634 23.4133H49.8151C53.319 23.4133 56.7441 20.7041 56.7441 17.1848C56.7441 13.6655 53.319 11.0227 49.8151 11.0227H14.7634V23.4133Z" fill="#A2DB00"/>
<path d="M133.212 0C143.002 0 152.096 7.45029 152.096 17.1848C152.096 24.2234 147.477 29.6418 141.257 32.683L137.123 34.5821C138.868 36.8132 140.548 38.8451 142.097 40.6778C142.726 41.4215 143.422 42.2316 144.052 42.9753L145.876 45.2064C146.991 46.561 147.831 47.6367 148.186 47.982H131.808L120.68 34.3829H95.3522V47.982H80.5887V0H133.199H133.212ZM95.3653 23.4133H130.417C133.921 23.4133 137.346 20.7041 137.346 17.1848C137.346 13.6655 133.921 11.0227 130.417 11.0227H95.3653V23.4133Z" fill="#A2DB00"/>
<path d="M161.204 47.9953V0.0132828H175.967V47.9953H161.204Z" fill="#A2DB00"/>
<path d="M208.014 0L233.066 35.0602L258.039 0H277.487V47.982H262.724V16.0294L240.06 47.982H225.992L203.329 16.0294V47.982H188.565V0H208.014Z" fill="#A2DB00"/>
<path d="M290.085 47.9953V0.0132828H352V9.96028H304.849V19.5089H347.879L344.874 28.3802H304.849V38.0616H352V48.0086H290.085V47.9953Z" fill="#A2DB00"/>
<path d="M96 106.695V90.3597C96 88.8457 97.2204 87.9825 100.593 87.9825C103.966 87.9825 105.829 88.8059 106.708 90.1206L115.37 103.109H115.803L124.464 90.3995C125.396 89.0715 127.299 87.9426 130.579 87.9426C133.414 87.9426 134.687 88.7926 134.687 90.2667V106.681H128.913V91.9666H128.571L119.385 105.353C118.703 106.309 117.325 107 115.37 107C113.414 107 111.853 106.389 111.262 105.406L102.168 91.9666H101.774V106.681H96V106.695Z" fill="#A2DB00"/>
<path d="M146.708 88.0887V106.695H140.789V88.0887H146.708Z" fill="#A2DB00"/>
<path d="M154.437 90.6651C154.437 88.9918 156.484 87.9692 159.424 87.9692C162.547 87.9692 164.411 88.4207 166.313 90.5323L178.19 103.547H178.82V88.0887H184.594V104.53C184.594 106.017 182.048 106.934 178.964 106.934C176.471 106.934 174.463 106.323 172.849 104.61L160.723 91.608H160.185V106.695H154.411V90.6519L154.437 90.6651Z" fill="#A2DB00"/>
<path d="M195.814 101.621C197.376 103.428 200.066 104.238 205.735 104.238C211.706 104.238 214.436 103.308 214.436 101.329C214.436 100.134 213.412 99.2708 210.722 99.138L201.628 98.7396C196.352 98.5271 191.943 96.8538 191.943 93.029C191.943 89.2043 195.958 87.8895 205.774 87.8895C214.331 87.8895 216.968 88.5801 219.659 91.276L215.066 92.9759C213.36 91.2096 211.155 90.5987 205.381 90.5987C199.265 90.5987 197.756 91.2893 197.756 93.0556C197.756 95.0609 199.659 95.8578 203.386 96.0171L211.063 96.3624C217.769 96.6811 220.157 98.1686 220.157 101.369C220.157 105.367 216.391 106.973 205.538 106.973C198.294 106.973 194.344 106.256 191.746 103.613L195.801 101.635L195.814 101.621Z" fill="#A2DB00"/>
<path d="M227.257 88.0887H233.175V106.695H227.257V88.0887ZM233.464 98.8326V97.292L245.34 88.0754H252.191L241.036 96.6546C240.354 97.0795 239.566 97.2123 238.595 97.2123H236.732V97.4779H237.414C240.839 97.4779 244.304 98.381 246.456 100.227L254.08 106.681H247.23L239.842 100.333C238.766 99.4036 236.469 98.8193 234.265 98.8193H233.438L233.464 98.8326Z" fill="#A2DB00"/>
<path d="M112.928 46.697C112.37 47.9421 110.895 52.6209 109.977 54.7026C107.574 60.9378 106.467 65.3053 104.992 71.9588C103.696 77.2602 103.327 80.4799 103.327 82.9798C103.327 84.6432 103.327 84.8475 103.516 85.3727C103.885 85.9953 103.885 86.4136 103.705 86.8318C103.336 87.1431 102.967 87.2501 102.23 87.2501H101.492C98.9093 87.0458 95.3999 85.2755 93.5552 83.5051C92.9971 82.8826 92.2593 81.8417 92.0796 81.0149C91.7106 80.1881 91.8904 77.4839 92.0796 75.9178C92.0796 75.4023 92.2687 74.77 92.2687 74.77C92.0796 74.77 91.7106 74.9743 91.162 75.1883C80.2741 80.2854 73.4348 82.9798 70.1145 83.5051C69.5564 83.6121 69.0078 83.6121 68.2699 83.6121C67.3429 83.6121 66.2361 83.6121 65.3186 83.5051C61.0712 82.7756 56.455 80.6939 54.9793 78.622C53.1347 76.3361 54.2415 72.6981 58.2996 68.6418C62.7267 64.0699 74.3619 55.7531 85.0701 55.7531C87.4728 55.7531 89.866 56.1714 92.4579 56.9982C93.1958 57.2025 94.3026 57.6208 94.8607 57.932C95.5985 58.2433 96.1566 58.4476 96.1566 58.4476C96.1566 58.4476 96.5255 57.6207 96.8945 56.6772C97.4526 54.4983 98.3701 52.6209 99.6661 49.5082C100.224 48.1561 100.773 47.018 100.593 47.018C100.593 47.018 97.4526 47.6405 93.5742 48.5743C89.885 49.4012 84.8998 50.549 82.6863 50.9673C80.4727 51.4828 77.1524 52.3194 75.1186 52.7376C73.274 53.2532 70.5024 53.8757 69.0267 54.1967C67.3618 54.615 65.8861 55.0236 65.7064 55.1306C65.1483 55.3348 64.4105 55.4418 63.124 55.4418H62.5658C62.0077 55.4418 61.6388 55.3348 60.901 55.2376C57.9496 54.3037 53.3334 52.1151 53.3334 50.1404C53.3334 49.4109 53.5225 49.3136 56.6536 48.4771C58.1293 48.0588 60.5321 47.3293 62.0077 46.9207C63.4834 46.5024 65.6969 45.9869 66.9929 45.6756C72.5267 44.1192 100.593 37.67 103.544 37.67C105.389 37.67 106.496 37.9813 108.34 39.1291C110.554 40.277 112.03 41.7263 112.768 43.2827C113.326 44.2165 113.326 45.5686 112.957 46.7164L112.928 46.697ZM89.6674 64.887C89.4782 64.0602 89.2985 62.4941 89.1093 62.3969C88.9201 62.2899 87.0755 63.0194 85.0511 63.8559C79.8862 65.9376 74.5322 69.5756 71.0227 73.2136C70.6537 73.5249 70.4645 73.8362 70.4645 73.8362C70.4645 73.8362 71.3916 73.5249 72.3092 73.1066C76.9254 71.025 81.3525 68.953 85.789 66.8714C88.9295 65.4123 89.6674 65.101 89.6674 64.8968V64.887Z" fill="white"/>
<path d="M183.971 85.9148C183.942 86.4958 182.492 87.0291 180.52 87.1625C179.805 87.2387 177.842 87.2767 176.237 87.2291L174.816 87.1815C172.864 86.9339 171.278 86.4958 170.224 86.0767C166.213 84.0195 166.048 68.5431 166.193 65.543L166.232 64.6763L164.173 66.743C156.691 74.067 150.397 78.8099 146.037 80.5147C144.955 80.8671 143.321 81.3052 142.064 81.4576C141.533 81.4385 140.634 81.5147 139.561 81.4766C138.139 81.429 136.718 81.2957 135.645 81.1623C130.87 80.3433 128.057 79.2861 126.172 77.5909C123.958 75.2956 122.904 71.105 122.74 63.2668C122.865 60.6572 123.03 57.181 123.561 53.3333C123.6 52.5618 123.842 51.1142 123.88 50.3427C124.103 49.3808 124.151 48.3237 124.354 47.9427C124.606 46.3998 124.635 45.7236 124.693 44.4664C125.021 41.2854 125.447 39.7521 125.862 38.5997C126.104 37.2568 126.665 36.6854 127.931 36.4377C128.472 36.2568 129.188 36.2853 130.261 36.3139C131.15 36.3425 132.223 36.3711 132.929 36.5901C135.578 37.152 137.685 37.8949 139.425 38.914C140.817 39.6378 141.33 40.2283 142.161 41.514C142.828 42.5045 142.992 42.7997 142.441 43.0664C141.89 43.4379 141.349 43.5141 139.928 43.476L138.681 43.4379L138.661 43.9236C138.652 44.2093 138.458 44.495 138.449 44.5903C138.439 44.6855 138.381 45.9427 138.139 47.3903C138.072 48.7427 137.762 51.638 137.492 53.5618C136.67 59.7239 136.544 66.1049 136.902 69.886C137.173 71.6384 137.753 74.5527 137.753 74.6479C137.927 74.7527 141.639 71.7622 143.882 69.6098C152.07 62.5049 159.02 54.9809 166.232 45.8093C168.32 43.1617 168.504 43.0759 169.403 42.9045C169.944 42.8283 170.485 42.7426 171.191 42.7617C174.575 42.8664 180.027 44.676 181.371 46.3522C181.709 46.7522 181.699 47.0379 181.303 51.6666C180.269 62.3715 180.52 76.0194 182.028 81.7719C182.318 83.1338 182.811 84.1148 183.478 85.1053C183.816 85.5053 183.981 85.8958 183.981 85.8958L183.971 85.9148Z" fill="white"/>
<path d="M263.389 39.514C263.293 40.7167 263.284 40.8137 262.918 41.289C262.735 41.483 262.379 41.8612 262.216 41.9485C261.876 42.1296 261.488 42.2104 261.051 42.191C259.137 41.6866 256.712 41.4539 254.759 41.3472C247.938 40.9786 237.451 41.609 224.79 42.9282C221.653 43.3549 218.199 43.772 218.199 43.772C218.026 43.8593 217.102 49.3298 216.641 53.0156C216.073 55.9934 215.332 65.2758 215.39 68.593C215.13 82.0171 215.861 89.1754 217.68 90.8728C219.055 92.0464 219.19 92.3568 218.497 92.8224C217.978 93.1909 217.324 93.2588 215.534 93.1618L214.726 93.1133L213.427 93.0455C211.493 92.7351 209.261 92.1143 208.01 91.445C204.249 89.5342 203.181 86.5662 202.786 77.3226C202.257 67.6716 202.94 57.0797 204.845 47.6615L204.961 46.1678C204.961 46.0708 200.977 47.0505 199.303 47.5645C196.138 48.3987 194.618 49.1165 194.243 49.6984C194.041 50.1931 193.54 50.358 192.723 50.3192C189.961 50.1737 185.699 46.4297 185.882 44.1309C185.921 43.6362 185.93 43.5296 186.469 42.9573C189.124 40.3966 200.545 38.2045 205.018 37.351C206.51 37.0309 207.173 36.866 207.183 36.769C208.636 30.8329 211.628 21.9676 212.446 20.0083C212.85 19.0286 213.523 18.7668 214.986 18.8444C218.228 19.0189 223.876 21.8318 224.193 23.956C224.167 24.2858 224.039 24.5476 223.808 24.7416C223.635 24.8289 223.289 25.1102 223.27 25.3139C222.692 26.3809 220.046 34.9649 220.2 35.0716C230.264 33.6167 242.743 32.5885 252.97 33.1414C254.759 33.2384 260.109 33.5294 261.167 34.5866C262.1 35.1395 262.831 36.1773 263.235 37.3025C263.505 38.0202 263.476 38.3209 263.38 39.514H263.389Z" fill="white"/>
<path d="M295.892 68.4705C294.821 71.8534 291.446 74.9146 285.227 78.5022C277.045 83.2597 266.56 86.6328 255.003 86.6328C253.941 86.6328 252.87 86.6328 252.159 86.5256C246.471 86.1063 241.844 84.7317 237.578 82.0898C231.709 78.5022 228.865 73.8519 229.396 68.997C229.927 65.0876 235.445 54.2078 242.195 52.5213C242.726 52.414 243.266 52.3068 243.617 52.3068C244.508 52.3068 245.399 52.5213 246.461 52.9405L247.172 53.3597L249.125 52.9405C254.282 51.9948 260.862 51.2539 265.659 50.9322C266.55 50.9322 267.612 50.825 268.503 50.825C282.373 50.825 293.219 56.5281 295.883 64.454C296.063 65.5068 296.063 67.5151 295.883 68.4705H295.892ZM287.36 61.8217C287.36 61.4025 287.18 61.4026 286.649 60.9736C284.696 60.1254 282.022 59.3845 278.827 58.9653C277.756 58.7508 275.983 58.7508 274.03 58.7508C266.209 58.7508 251.268 60.6519 245.579 63.2938C242.555 64.3467 239.891 72.4871 239.711 74.5928C239.711 76.0747 239.891 77.0203 240.422 77.9757C240.602 78.3949 240.773 78.5022 241.313 78.6094C243.266 79.1359 245.94 79.4576 248.784 79.4576C250.386 79.4576 251.808 79.3503 253.41 79.2431C259.81 78.5022 266.92 76.3867 273.68 73.2183C281.861 69.3089 287.369 64.7659 287.369 61.812L287.36 61.8217Z" fill="white"/>
</svg>
